<?xml version="1.0" encoding="UTF-8"?>
<svg xmlns="http://www.w3.org/2000/svg" viewBox="0 0 64 64" role="img" aria-label="STM">
  <defs>
    <linearGradient id="g" x1="0" y1="0" x2="1" y2="1">
      <stop offset="0" stop-color="#0d6efd"/>
      <stop offset="1" stop-color="#00aae8"/>
    </linearGradient>
  </defs>
  <rect x="4" y="4" width="56" height="56" rx="14" fill="url(#g)"/>
  <path d="M20 40.5c2.6 2.3 6.5 3.3 10.2 3.3 6 0 9.8-2.8 9.8-7.2 0-3.4-2-5.3-6.8-6.4l-2.5-.6c-2.8-.6-3.9-1.3-3.9-2.5 0-1.4 1.4-2.3 3.7-2.3 2.4 0 4.5.8 6.4 2.2l2.1-3.2c-2.4-1.8-5.3-2.8-8.7-2.8-5.3 0-9 2.8-9 6.9 0 3.4 2.1 5.4 6.7 6.4l2.5.6c3.1.7 4 1.3 4 2.7 0 1.6-1.6 2.5-4.3 2.5-2.8 0-5.5-.9-7.7-2.9L20 40.5Z" fill="#fff" opacity="0.95"/>
  <path d="M43.2 43.5V24.1h6.1v-3.8H33.1v3.8h6.1v19.4h4Z" fill="#fff" opacity="0.95"/>
</svg>
